<?xml version="1.0" encoding="UTF-8"?>
<svg id="Layer_1" xmlns="http://www.w3.org/2000/svg" version="1.1" viewBox="0 0 326.1 102.1">
  <!-- Generator: Adobe Illustrator 30.1.0, SVG Export Plug-In . SVG Version: 2.1.1 Build 136)  -->
  <defs>
    <style>
      .st0 {
        fill: #6abd49;
      }

      .st1 {
        fill: #4a494a;
      }
    </style>
  </defs>
  <g>
    <path class="st0" d="M6.8,48c-1.5-.2-2.7-1.3-2.7-2.9v-19.1c0-12.1,5.2-18.7,21.3-18.4l13.1.2c13.2.2,20.4,3.8,20.4,18.5v18.9c0,1.6-1.2,2.9-2.7,2.9h-2.1c-1.5,0-2.7-1.3-2.7-2.9v-18c0-10.9-6.2-11.8-19.9-11.8s-20,.4-20,11.8v18c0,1.6-1.3,3.1-2.8,2.9l-2.1-.2Z"/>
    <path class="st0" d="M123.1,7.9c1.5,0,2.7,1.3,2.7,2.9v16.9c0,9.7-3.3,20.5-19.7,20.5h-13.4c-10.1,0-21.8-4.4-21.8-17.7V10.8c0-1.6,1.2-2.9,2.7-2.9h2.1c1.5,0,2.8,1.3,2.8,2.9v18.8c0,10.6,11.9,11,19.8,11s20.1.7,20.1-10.7V10.8c0-1.6,1.2-2.9,2.7-2.9h2.1Z"/>
    <path class="st0" d="M169.6,49.4h-12.5c-9.9,0-20.9-3.9-20.9-15.5v-11.5c0-11.7,11-15.5,20.9-15.5h15.7c12.2,0,19.1,6.6,19.1,18.3v4.1c0,1.6-1.3,2.5-3.1,2.5h-45c-.1,11.8,13.7,10.1,21.6,10.1s16.5.7,18.7-5.2c.4-1.3,1.2-1.9,2.2-1.9h3.7c1.2,0,1.9.8,1.7,1.9-1.4,10.6-12.2,12.8-22,12.8ZM143.7,24.8h40.6c0-11.8-15.4-10.4-20-10.4-8.7,0-20.8-1.6-20.6,10.4Z"/>
    <path class="st0" d="M257.2,8c2.3,0,5.6-.2,3.4,2.9l-24.4,34.5c-1,1.4-2.5,2.9-4,2.9h-6.6c-1.6,0-3.1-1.5-4.1-2.9l-24.4-34.5c-2.1-3,2-2.9,4.3-2.9h1.2c2.1,0,2.8,1,3.7,2.5l22.6,32,22.8-32.2c1-1.5,2-2.3,4.1-2.3h1.6Z"/>
    <path class="st0" d="M265.9,26.2c0-10.7,6.5-19.3,22-19.3h13c11.7,0,21.8,6.5,21.8,18v5.8c0,14.2-10,18.7-22.8,18.7h-14.5c-9.9,0-19.5-5.7-19.5-15.4v-7.8ZM294.3,41.7c2.8,0,20.7.2,20.8-9.1v-8.1c.1-10.9-17.5-10.1-20.8-10.1-13,0-20.9,2.5-20.9,10v8c0,10.1,17.9,9.3,20.9,9.3Z"/>
  </g>
  <g>
    <path class="st1" d="M6.2,92.9c-.1,0-.3,0-.5,0-.2,0-.3-.1-.4-.2s-.2-.2-.2-.3,0-.1,0-.2l5.7-14.9c0-.2.2-.3.4-.4.2,0,.4-.1.7-.1.3,0,.5,0,.7.1.2,0,.3.2.4.4l5.7,14.9s0,0,0,.1c0,.1,0,.2-.2.3s-.2.2-.4.2c-.2,0-.3,0-.5,0s-.3,0-.4,0c-.1,0-.2-.2-.3-.3l-1.3-3.4h-7.5s-1.2,3.4-1.2,3.4c0,.1-.1.2-.3.3-.1,0-.3,0-.5,0ZM8.6,87.9h6.6s-3.3-8.9-3.3-8.9l-3.3,8.9Z"/>
    <path class="st1" d="M25,92.9c-.2,0-.4,0-.6-.1-.2,0-.3-.2-.3-.4v-15c0-.2,0-.3.3-.4.2,0,.4-.1.6-.1.2,0,.4,0,.6.1.2,0,.3.2.3.4v15c0,.2,0,.3-.3.4-.2,0-.4.1-.6.1Z"/>
    <path class="st1" d="M32.7,88.2c-.2,0-.4,0-.5-.2-.1-.1-.2-.3-.2-.5s0-.3.2-.5c.1-.1.3-.2.5-.2h7.1c.2,0,.3,0,.5.2.1.1.2.3.2.5s0,.3-.2.5c-.1.1-.3.2-.5.2h-7.1Z"/>
    <path class="st1" d="M50.4,93c-.8,0-1.6-.2-2.4-.6-.7-.4-1.3-.9-1.8-1.5-.4-.6-.7-1.3-.7-2v-2.4c0-.8.2-1.5.7-2.1.4-.6,1-1.1,1.8-1.5.7-.4,1.6-.6,2.4-.6s1.6.2,2.2.5c.6.3,1.1.7,1.3,1.2v-7.4c0-.2,0-.3.3-.4.2,0,.4-.1.6-.1s.5,0,.6.1c.2,0,.2.2.2.4v15.7c0,.1,0,.3-.2.4s-.4.2-.6.2-.4,0-.6-.2c-.2-.1-.3-.2-.3-.4v-1c-.3.5-.7.9-1.4,1.2s-1.4.5-2.3.5ZM50.8,91.7c.7,0,1.2-.1,1.7-.4.5-.3.9-.6,1.2-.9s.4-.6.4-.8v-3.1c0-.6-.2-1.1-.5-1.5-.3-.4-.7-.7-1.3-1-.5-.2-1-.3-1.6-.3-.6,0-1.2.1-1.7.4-.5.3-.9.6-1.2,1-.3.4-.5.9-.5,1.4v2.4c0,.5.2.9.5,1.4.3.4.7.8,1.2,1.1.5.3,1.1.4,1.7.4Z"/>
    <path class="st1" d="M62.9,92.9c-.2,0-.4,0-.6-.2-.2-.1-.3-.2-.3-.4v-9.3c0-.2,0-.3.3-.4.2,0,.4-.1.6-.1s.4,0,.6.1c.2,0,.2.2.2.4v1.1c.2-.3.5-.6.8-.9.3-.3.8-.5,1.2-.6.5-.2,1-.3,1.6-.3h1c.2,0,.4,0,.5.2.1.1.2.3.2.5s0,.3-.2.5c-.1.1-.3.2-.5.2h-1c-.6,0-1.2.1-1.7.4-.6.3-1,.6-1.3,1.1-.3.5-.5,1-.5,1.7v5.4c0,.1,0,.3-.3.4s-.4.2-.6.2Z"/>
    <path class="st1" d="M74.7,79.4c-.3,0-.6,0-.8-.3-.2-.2-.4-.4-.4-.6,0-.2.1-.5.4-.6.2-.2.5-.3.8-.3.3,0,.6,0,.9.3.2.2.3.4.3.6,0,.2-.1.5-.3.6-.2.2-.5.3-.9.3ZM74.7,92.9c-.2,0-.4,0-.6-.2s-.3-.2-.3-.4v-9.3c0-.2,0-.3.3-.4.2,0,.4-.1.6-.1.3,0,.5,0,.6.1.2,0,.3.2.3.4v9.3c0,.1,0,.3-.3.4-.2.1-.4.2-.6.2Z"/>
    <path class="st1" d="M85.8,93c-.2,0-.4,0-.5,0-.1,0-.2-.1-.3-.3l-4.4-9.3s0,0,0-.2,0-.1,0-.2c0-.1,0-.2.2-.3.1-.1.3-.2.4-.2.2,0,.3,0,.5,0s.3,0,.4,0c.1,0,.2.1.3.3l3.6,7.9,3.6-7.8c0-.1,0-.2.2-.3,0,0,.2-.1.4-.1s.3,0,.5,0c.2,0,.3.1.4.2.1,0,.2.2.2.3s0,.1,0,.2,0,.1,0,.1l-4.4,9.3c0,.1-.2.2-.3.3-.2,0-.3,0-.5,0Z"/>
    <path class="st1" d="M101.3,93c-1.1,0-2.2-.2-3-.5-.9-.4-1.6-.8-2.1-1.5s-.7-1.4-.8-2.2v-2.4c0-.7.2-1.4.7-2,.5-.6,1.1-1.1,1.9-1.5s1.7-.6,2.6-.6c.9,0,1.7.2,2.5.5.8.3,1.4.8,1.9,1.4.5.6.7,1.3.7,2.1,0,.6-.1,1-.4,1.2-.2.2-.5.4-.9.5-.4,0-.7,0-1.1,0h-6.2s0,.8,0,.8c0,.9.4,1.6,1.2,2.1.8.5,1.8.8,3,.8.7,0,1.3,0,1.7-.2.4-.1.7-.3.9-.4s.4-.2.6-.2c.1,0,.3,0,.4.1s.2.2.3.3c0,.1,0,.2,0,.3,0,.2-.2.4-.5.6-.3.2-.8.4-1.4.6-.6.2-1.3.3-2.2.3ZM97.2,87h5.4c.5,0,.9,0,1.1-.1.2,0,.3-.3.3-.6,0-.5-.1-.9-.4-1.3-.3-.4-.7-.8-1.2-1-.5-.3-1.1-.4-1.8-.4-.6,0-1.2.1-1.7.4-.5.2-.9.6-1.2,1-.3.4-.5.8-.5,1.3v.8Z"/>
    <path class="st1" d="M112,92.8c-.2,0-.4,0-.6-.2-.2-.1-.3-.2-.3-.4v-9.3c0-.2,0-.3.3-.4s.4-.1.6-.1.4,0,.6.1c.2,0,.2.2.2.4v1c.3-.4.7-.8,1.4-1.2.6-.3,1.4-.5,2.3-.5.9,0,1.7.2,2.4.6.7.4,1.3.9,1.8,1.5.4.6.7,1.3.7,2.1v5.8c0,.2,0,.3-.3.4-.2,0-.4.1-.6.1s-.4,0-.6-.1c-.2,0-.3-.2-.3-.4v-5.8c0-.5-.2-.9-.5-1.4-.3-.4-.7-.8-1.2-1-.5-.3-1.1-.4-1.7-.4-.5,0-1.1.1-1.6.3-.5.2-.9.5-1.2,1-.3.4-.5.9-.5,1.5v5.8c0,.1,0,.3-.3.4-.2.1-.4.2-.6.2Z"/>
    <path class="st1" d="M139.1,93c-.9,0-1.6,0-2.2-.3-.6-.2-1.1-.4-1.5-.6-.4-.2-.5-.5-.5-.7,0-.1,0-.2,0-.3,0,0,.1-.2.2-.3,0,0,.2-.1.3-.1.2,0,.4,0,.7.3.2.2.6.3,1,.5.4.2,1.1.3,1.9.3,1,0,1.8-.2,2.2-.5.4-.3.6-.7.6-1.1,0-.5-.2-.9-.5-1.1-.3-.3-.7-.5-1.3-.6-.5-.1-1.1-.3-1.6-.4-.6-.1-1.1-.3-1.6-.5-.5-.2-.9-.5-1.3-.8-.3-.4-.5-.8-.5-1.4,0-.5.1-.9.4-1.4.3-.5.7-.8,1.4-1.1.6-.3,1.5-.5,2.5-.5.6,0,1.2,0,1.7.2.6.1,1,.2,1.4.4.4.2.5.3.5.5s0,.2,0,.3c0,.1-.1.2-.3.3s-.2.1-.4.1-.3,0-.6-.2c-.2-.1-.6-.2-.9-.3-.4-.1-.8-.2-1.4-.2-.7,0-1.2,0-1.6.3-.4.2-.7.4-.9.7-.2.3-.3.5-.3.8,0,.4.2.7.5.9.3.2.7.4,1.3.5.5.1,1.1.3,1.6.4s1.1.3,1.6.5c.5.2.9.5,1.3.9.3.4.5.9.5,1.6,0,.9-.4,1.6-1.1,2.1-.8.5-1.8.8-3.2.8Z"/>
    <path class="st1" d="M153.6,93c-.9,0-1.8-.2-2.6-.6-.8-.4-1.4-.9-1.9-1.5-.5-.6-.7-1.3-.7-2.1v-2.4c0-.7.2-1.4.7-2,.5-.6,1.1-1.1,1.9-1.5.8-.4,1.7-.6,2.6-.6.9,0,1.8.2,2.6.6.8.4,1.4.9,1.9,1.5.5.6.7,1.3.7,2.1v2.4c0,.7-.2,1.4-.7,2-.5.6-1.1,1.2-1.9,1.6-.8.4-1.6.6-2.6.6ZM153.6,91.6c.6,0,1.2-.1,1.7-.4.5-.3.9-.6,1.2-1.1.3-.4.5-.9.5-1.4v-2.4c0-.5-.2-.9-.5-1.4s-.7-.8-1.2-1c-.5-.3-1.1-.4-1.7-.4s-1.2.1-1.7.4c-.5.3-.9.6-1.2,1-.3.4-.5.9-.5,1.4v2.4c0,.5.2.9.5,1.4.3.4.7.8,1.2,1.1.5.3,1.1.4,1.7.4Z"/>
    <path class="st1" d="M165.3,92.8c-.2,0-.4,0-.6-.2-.2-.1-.2-.2-.2-.4v-12.2c0-.7.2-1.4.7-2,.4-.6,1-1.1,1.8-1.5.7-.4,1.5-.6,2.4-.6h.7c.3,0,.4,0,.6.2.1.1.2.3.2.5s0,.3-.2.4c-.1.1-.3.2-.6.2h-.5c-.6,0-1.2.1-1.7.4-.5.2-.9.6-1.2,1s-.4.8-.4,1.3v2.4s3.9,0,3.9,0c.2,0,.4,0,.5.2.1.1.2.3.2.4s0,.3-.2.4c-.1.1-.3.2-.5.2h-3.9s0,8.7,0,8.7c0,.2,0,.3-.3.4-.2.1-.4.2-.7.2Z"/>
    <path class="st1" d="M179.8,92.8c-1.4,0-2.5-.3-3.2-.8-.7-.5-1.1-1.3-1.1-2.5v-11.6c0-.2,0-.3.3-.4s.4-.1.6-.1.4,0,.6.1c.2,0,.3.2.3.4v4.4s3.5,0,3.5,0c.2,0,.3,0,.4.2.1.1.2.3.2.4s0,.3-.2.4c-.1.1-.3.2-.4.2h-3.5s0,6,0,6c0,.7.2,1.2.6,1.5.4.3,1,.4,2,.4h.8c.3,0,.4,0,.6.2.1.1.2.3.2.5s0,.3-.2.5-.3.2-.6.2h-.8Z"/>
    <path class="st1" d="M190.1,93c-.2,0-.3,0-.4,0-.1,0-.2-.2-.3-.4l-4.2-9.2c0,0,0-.1,0-.2,0,0,0-.1,0-.1,0-.1,0-.2.2-.3.1,0,.2-.2.4-.2.2,0,.3,0,.5,0s.3,0,.4,0c.1,0,.2.1.2.2l3.5,7.8,2.8-7.2c0-.1.1-.2.3-.3.1,0,.3,0,.5,0s.3,0,.4,0c.1,0,.2.2.3.3l2.7,7.2,3.5-7.9c0-.2.3-.3.6-.3.1,0,.3,0,.5,0,.2,0,.3.1.4.2.1,0,.2.2.2.3s0,.1,0,.2c0,0,0,.1,0,.2l-4.2,9.3c0,.1-.1.2-.3.3-.1,0-.3,0-.4,0s-.3,0-.5,0c-.1,0-.2-.1-.3-.2l-2.8-7.1-2.8,7c0,.1-.2.3-.3.3s-.3.1-.5.1Z"/>
    <path class="st1" d="M210.1,92.9c-1,0-1.9-.2-2.6-.7-.7-.5-1.1-1.2-1.1-2.2,0-.8.3-1.4.8-1.9.5-.4,1.3-.7,2.2-.9,1-.2,2.1-.3,3.3-.3h1.4s0-.5,0-.5c0-.5-.1-1-.3-1.4s-.5-.8-1-1.1c-.5-.3-1.1-.5-1.9-.5-.6,0-1.1,0-1.5.2-.4.1-.7.2-.9.3s-.4.2-.5.2c-.2,0-.4,0-.5-.3-.1-.2-.2-.3-.2-.5s.2-.4.6-.6c.4-.2.9-.3,1.4-.4.6-.1,1.1-.2,1.7-.2,1.2,0,2.2.2,2.9.6.7.4,1.2.9,1.6,1.6.3.6.5,1.3.5,2.1v5.7c0,.2,0,.3-.2.4s-.4.2-.6.2c-.2,0-.4,0-.6-.2-.2-.1-.3-.2-.3-.4v-1c-.5.4-1,.8-1.7,1.2-.7.3-1.5.5-2.4.5ZM210.5,91.7c.6,0,1.2-.1,1.7-.4.5-.2,1-.6,1.3-.9.4-.4.5-.7.5-1v-1.4s-1.1,0-1.1,0c-.8,0-1.6,0-2.3.1-.7,0-1.3.3-1.8.5s-.7.7-.7,1.3c0,.6.2,1.1.7,1.4s1,.4,1.7.4Z"/>
    <path class="st1" d="M222.8,92.8c-.2,0-.4,0-.6-.2-.2-.1-.3-.2-.3-.4v-9.3c0-.2,0-.3.3-.4.2,0,.4-.1.6-.1s.4,0,.6.1c.2,0,.2.2.2.4v1.1c.2-.3.5-.6.8-.9.3-.3.8-.5,1.2-.6.5-.2,1-.3,1.6-.3h1c.2,0,.4,0,.5.2.1.1.2.3.2.5s0,.3-.2.5c-.1.1-.3.2-.5.2h-1c-.6,0-1.2.1-1.7.4-.6.3-1,.6-1.3,1.1-.3.5-.5,1-.5,1.7v5.4c0,.1,0,.3-.3.4-.2.1-.4.2-.6.2Z"/>
    <path class="st1" d="M238.5,92.9c-1.1,0-2.2-.2-3-.5-.9-.4-1.6-.8-2.1-1.5-.5-.6-.8-1.4-.8-2.2v-2.4c0-.7.2-1.4.7-2s1.1-1.1,1.9-1.5c.8-.4,1.7-.6,2.6-.6.9,0,1.7.2,2.5.5.8.3,1.4.8,1.9,1.4s.7,1.3.7,2.1c0,.6-.1,1-.4,1.2-.2.2-.5.4-.9.5-.4,0-.7,0-1.1,0h-6.2s0,.8,0,.8c0,.9.4,1.6,1.2,2.1.8.5,1.8.8,3,.8.7,0,1.3,0,1.7-.2.4-.1.7-.3.9-.4.2-.1.4-.2.6-.2s.3,0,.4.1c.1,0,.2.2.3.3s0,.2,0,.3c0,.2-.2.4-.5.6-.3.2-.8.4-1.4.6-.6.2-1.3.3-2.2.3ZM234.4,86.9h5.4c.5,0,.9,0,1.1-.1.2,0,.3-.3.3-.6,0-.5-.1-.9-.4-1.3-.3-.4-.7-.8-1.2-1-.5-.3-1.1-.4-1.8-.4-.6,0-1.2.1-1.7.4-.5.2-.9.6-1.2,1-.3.4-.5.8-.5,1.3v.8Z"/>
    <path class="st1" d="M249.2,92.8c-.2,0-.4,0-.6-.2-.2-.1-.3-.2-.3-.4v-15.7c0-.2,0-.3.2-.4.2,0,.4-.1.6-.1.3,0,.5,0,.6.1.2,0,.3.2.3.4v7.4c.3-.4.8-.8,1.4-1.2.6-.3,1.3-.5,2.2-.5.9,0,1.7.2,2.4.6.7.4,1.3.9,1.8,1.5.4.6.7,1.3.7,2.1v5.8c0,.2,0,.3-.3.4-.2,0-.4.1-.6.1s-.4,0-.6-.1c-.2,0-.3-.2-.3-.4v-5.8c0-.5-.2-.9-.5-1.4-.3-.4-.7-.8-1.2-1-.5-.3-1.1-.4-1.7-.4-.5,0-1.1.1-1.6.3-.5.2-.9.5-1.2,1-.3.4-.5.9-.5,1.5v5.8c0,.1,0,.3-.3.4-.2.1-.4.2-.6.2Z"/>
    <path class="st1" d="M269.3,92.9c-.9,0-1.8-.2-2.6-.6-.8-.4-1.4-.9-1.9-1.5-.5-.6-.7-1.3-.7-2.1v-2.4c0-.7.2-1.4.7-2,.5-.6,1.1-1.1,1.9-1.5.8-.4,1.7-.6,2.6-.6.9,0,1.8.2,2.6.6.8.4,1.4.9,1.9,1.5.5.6.7,1.3.7,2.1v2.4c0,.7-.2,1.4-.7,2-.5.6-1.1,1.2-1.9,1.6-.8.4-1.6.6-2.6.6ZM269.3,91.6c.6,0,1.2-.1,1.7-.4.5-.3.9-.6,1.2-1.1.3-.4.5-.9.5-1.4v-2.4c0-.5-.2-.9-.5-1.4-.3-.4-.7-.8-1.2-1-.5-.3-1.1-.4-1.7-.4-.6,0-1.2.1-1.7.4-.5.3-.9.6-1.2,1-.3.4-.5.9-.5,1.4v2.4c0,.5.2.9.5,1.4.3.4.7.8,1.2,1.1.5.3,1.1.4,1.7.4Z"/>
    <path class="st1" d="M285.2,92.9c-1,0-1.8-.2-2.6-.6s-1.4-.9-1.9-1.5-.7-1.3-.7-2v-5.9c0-.1,0-.3.3-.4.2-.1.4-.2.6-.2s.4,0,.6.2c.2.1.3.2.3.4v5.9c0,.5.2.9.5,1.4.3.4.7.8,1.2,1,.5.3,1.1.4,1.7.4.6,0,1.2-.1,1.7-.4.5-.3.9-.6,1.2-1,.3-.4.4-.9.4-1.4v-5.9c0-.1,0-.3.3-.4.2-.1.4-.2.6-.2.3,0,.5,0,.6.2s.2.2.2.4v5.9c0,.7-.2,1.4-.7,2-.5.6-1.1,1.1-1.9,1.5s-1.6.6-2.6.6Z"/>
    <path class="st1" d="M299.9,92.9c-.9,0-1.6,0-2.2-.3-.6-.2-1.1-.4-1.5-.6-.4-.2-.5-.5-.5-.7s0-.2,0-.3c0,0,.1-.2.2-.3,0,0,.2-.1.3-.1.2,0,.4,0,.7.3.2.2.6.3,1,.5.4.2,1.1.3,1.9.3,1,0,1.8-.2,2.2-.5.4-.3.6-.7.6-1.1,0-.5-.2-.9-.5-1.1-.3-.3-.7-.5-1.3-.6-.5-.1-1.1-.3-1.6-.4-.6-.1-1.1-.3-1.6-.5-.5-.2-.9-.5-1.3-.8-.3-.4-.5-.8-.5-1.4,0-.5.1-.9.4-1.4.3-.5.7-.8,1.4-1.1.6-.3,1.5-.5,2.5-.5.6,0,1.2,0,1.7.2s1,.2,1.4.4c.4.2.5.3.5.5s0,.2,0,.3c0,.1-.1.2-.3.3-.1,0-.2.1-.4.1-.1,0-.3,0-.6-.2-.2-.1-.6-.2-.9-.3-.4-.1-.8-.2-1.4-.2-.7,0-1.2,0-1.6.3-.4.2-.7.4-.9.7-.2.3-.3.5-.3.8,0,.4.2.7.5.9.3.2.7.4,1.3.5.5.1,1.1.3,1.6.4.6.1,1.1.3,1.6.5.5.2.9.5,1.3.9.3.4.5.9.5,1.6,0,.9-.4,1.6-1.1,2.1-.8.5-1.8.8-3.2.8Z"/>
    <path class="st1" d="M315.1,92.9c-1.1,0-2.2-.2-3-.5-.9-.4-1.6-.8-2.1-1.5-.5-.6-.8-1.4-.8-2.2v-2.4c0-.7.2-1.4.7-2s1.1-1.1,1.9-1.5,1.7-.6,2.6-.6c.9,0,1.7.2,2.5.5.8.3,1.4.8,1.9,1.4s.7,1.3.7,2.1c0,.6-.1,1-.4,1.2-.2.2-.5.4-.9.5-.4,0-.7,0-1.1,0h-6.2s0,.8,0,.8c0,.9.4,1.6,1.2,2.1.8.5,1.8.8,3,.8.7,0,1.3,0,1.7-.2.4-.1.7-.3.9-.4s.4-.2.6-.2.3,0,.4.1.2.2.3.3,0,.2,0,.3c0,.2-.2.4-.5.6-.3.2-.8.4-1.4.6-.6.2-1.3.3-2.2.3ZM311,86.9h5.4c.5,0,.9,0,1.1-.1.2,0,.3-.3.3-.6,0-.5-.1-.9-.4-1.3-.3-.4-.7-.8-1.2-1-.5-.3-1.1-.4-1.8-.4-.6,0-1.2.1-1.7.4-.5.2-.9.6-1.2,1-.3.4-.5.8-.5,1.3v.8Z"/>
  </g>
</svg>